<?xml version="1.0" standalone="no"?>
<!DOCTYPE svg PUBLIC "-//W3C//DTD SVG 20010904//EN"
 "http://www.w3.org/TR/2001/REC-SVG-20010904/DTD/svg10.dtd">
<svg version="1.0" xmlns="http://www.w3.org/2000/svg"
 width="700.000000pt" height="700.000000pt" viewBox="0 0 700.000000 700.000000"
 preserveAspectRatio="xMidYMid meet">
<metadata>
Created by potrace 1.14, written by Peter Selinger 2001-2017
</metadata>
<g transform="translate(0.000000,700.000000) scale(0.100000,-0.100000)"
fill="#000000" stroke="none">
<path d="M3239 6996 c-2 -2 -38 -6 -79 -10 -41 -4 -102 -11 -135 -16 -33 -6
-67 -11 -75 -11 -39 -3 -237 -44 -340 -71 -283 -74 -554 -183 -808 -325 -139
-77 -362 -222 -362 -234 0 -5 -5 -9 -11 -9 -13 0 -111 -77 -224 -174 -165
-143 -383 -375 -502 -537 -66 -90 -163 -229 -163 -235 0 -3 -15 -29 -33 -57
-74 -114 -181 -323 -237 -462 -18 -44 -38 -93 -45 -110 -68 -156 -173 -566
-191 -740 -3 -27 -7 -55 -9 -62 -19 -56 -28 -594 -13 -768 9 -100 35 -278 54
-370 9 -38 17 -79 19 -90 12 -57 28 -121 34 -130 3 -5 7 -20 8 -32 6 -38 82
-263 129 -377 81 -199 201 -426 318 -601 220 -331 507 -639 794 -852 42 -32
79 -61 82 -64 12 -13 193 -130 285 -183 55 -32 107 -62 115 -67 132 -76 441
-204 625 -259 39 -11 84 -25 100 -30 26 -8 59 -16 145 -35 8 -2 35 -8 60 -14
58 -13 106 -21 150 -26 19 -2 42 -6 50 -9 8 -3 40 -8 70 -11 30 -3 87 -8 125
-12 39 -4 282 -8 540 -8 l470 0 0 30 c0 22 5 31 20 33 57 9 273 66 365 96 236
76 493 191 704 315 53 30 73 38 87 31 27 -15 95 -12 109 5 7 9 10 29 6 52 -6
38 -5 39 58 82 36 24 73 51 83 60 10 9 41 33 68 54 198 152 455 418 629 652
36 50 70 95 74 100 4 6 19 28 32 50 13 22 28 41 32 43 4 2 8 8 8 14 0 5 15 33
34 61 19 29 49 81 67 117 19 36 36 67 39 70 9 9 86 170 130 274 67 158 169
474 185 576 3 14 9 43 14 65 6 22 12 56 16 75 3 19 7 46 10 60 2 14 7 44 10
67 3 23 8 57 10 75 28 197 28 693 0 883 -20 140 -33 213 -55 310 -43 195 -90
348 -167 545 -59 149 -193 419 -253 510 -9 14 -51 77 -92 140 -42 63 -84 125
-95 137 -10 11 -25 31 -33 44 -33 49 -199 240 -292 334 l-98 99 11 34 c24 73
-16 202 -62 202 -13 0 -40 -19 -65 -45 -23 -25 -45 -45 -48 -45 -4 0 -39 26
-79 58 -60 47 -255 182 -332 229 -132 81 -342 186 -491 246 -121 50 -347 127
-370 127 -8 0 -22 4 -32 9 -15 8 -66 21 -137 35 -11 3 -51 11 -90 20 -38 8
-88 17 -110 20 -23 4 -50 8 -60 10 -11 2 -48 7 -82 11 -35 4 -75 9 -90 12 -31
5 -609 14 -614 9z"/>
</g>
</svg>
