<svg width="212" height="33" viewBox="0 0 212 33" fill="none" xmlns="http://www.w3.org/2000/svg">
<path d="M39.0232 13.1206C36.6455 13.1206 34.6344 14.9255 32.0884 18.3965C30.9194 20.023 29.4135 22.3635 28.7497 23.3552C28.3733 23.861 28.0761 23.7816 28.2841 23.2362L30.0475 18.7139L36.3483 1.35867C36.6554 0.644623 34.1391 -0.21818 33.6834 0.644623V0.733878C32.6035 3.03469 30.5924 3.7884 26.9962 3.65948C23.4 3.53055 16.168 1.53718 10.6994 1.53718C3.84387 1.53718 0 5.76194 0 10.7404C0 13.5371 1.83277 15.342 4.29958 15.2528C4.84801 15.2978 5.3939 15.14 5.8339 14.8092C6.2739 14.4784 6.57747 13.9975 6.68714 13.4577C6.74054 13.249 6.73635 13.0297 6.675 12.8232C6.61365 12.6167 6.49746 12.4308 6.33881 12.2852C6.18016 12.1396 5.98501 12.0399 5.77418 11.9966C5.56334 11.9534 5.34473 11.9682 5.14167 12.0396C2.71448 12.5454 1.88231 10.8693 1.88231 9.57017C1.88231 6.47598 4.51753 4.17517 10.0258 4.17517C11.4424 4.17517 14.2065 4.51236 17.129 4.83963C13.4139 16.0462 9.64929 26.4295 8.72796 28.889C8.64143 29.2197 8.47378 29.5235 8.24023 29.7729C8.00667 30.0223 7.71461 30.2094 7.39053 30.3171C6.06301 30.7336 5.63701 30.7733 4.80483 30.9816C3.54666 31.2791 3.7547 32.3204 4.63642 32.2807C6.22152 32.1915 8.27224 31.9832 9.89697 31.9832C11.8783 31.9832 15.4547 32.1518 15.9996 32.1915C16.9903 32.2807 17.129 31.0609 16.2968 30.9419C15.7123 30.8526 14.7513 30.694 13.83 30.565C12.7402 30.4361 12.4133 29.9799 12.661 29.0973C13.2059 27.6394 19.5958 9.15365 20.854 5.29583C22.8353 5.54376 24.5294 5.71235 25.6489 5.79169C27.9572 5.93053 30.1763 5.79169 32.0884 4.39335L27.0359 18.6742L22.6075 30.9022C21.8546 32.8857 24.6879 33.0344 25.322 31.8245C27.4728 27.5219 30.0024 23.4198 32.8809 19.5668C34.7236 16.8891 36.4375 15.2924 37.6461 15.2924C38.5675 15.2924 39.1024 15.7982 39.1024 16.9288C39.1024 18.4362 38.399 20.7767 36.9725 24.7535C35.1001 29.9403 34.3868 31.3188 33.7626 31.3584C33.1385 31.3981 31.9199 29.851 31.2562 29.6824C30.9434 29.588 30.6072 29.6079 30.3078 29.7387C30.0083 29.8695 29.7651 30.1027 29.6216 30.3965C29.2847 30.9816 29.5027 32.8659 32.336 32.9948C35.7242 33.1535 38.6071 29.6824 40.6083 24.1287C41.9853 20.3602 42.3222 18.4362 42.3222 17.0577C42.3222 14.3801 41.0739 13.1206 39.0232 13.1206V13.1206ZM96.384 31.0609C94.254 30.565 93.4119 29.7717 93.4119 28.9287L93.5011 27.1733C93.5011 25.8841 94.4918 6.85284 94.7097 4.00658C94.8781 1.91403 92.4906 2.02312 91.49 3.25287L89.5086 5.80161C87.0715 8.85613 77.2736 21.5304 72.4886 27.4709C71.144 29.1077 69.3704 30.3371 67.3667 31.0212C66.5742 31.2295 66.6534 32.0725 67.5352 32.0725C68.2385 32.0725 70.3289 31.8245 71.8744 31.8245C73.4198 31.8245 76.2631 31.9435 76.9764 31.9832C77.6897 32.0229 77.9671 31.2295 76.9764 30.9915C74.995 30.4064 74.0043 29.9998 74.0043 29.4841C74.0043 28.9684 74.4601 28.2742 75.5498 26.7667C76.382 25.5965 78.3832 22.9585 80.6023 20.0329H90.1525C89.9445 24.0494 89.6968 28.2742 89.6572 29.1072C89.6618 29.3742 89.5717 29.6342 89.4031 29.8412C89.2345 30.0481 88.9981 30.1886 88.7359 30.2378L86.6059 30.8626C86.0214 31.0312 85.7638 32.1221 86.6851 32.0824C88.7755 31.9535 90.529 31.7849 91.4503 31.7849C92.8274 31.7849 95.1654 32.0824 96.2552 32.1221C97.3449 32.1617 97.1864 31.2791 96.384 31.0609V31.0609ZM90.4398 15.7189C90.4398 16.4726 90.3507 17.3056 90.3111 18.1883H82.1379C85.9421 13.1602 89.9544 7.89415 90.2912 7.38837C90.6281 6.88259 90.955 7.14044 90.9154 7.5173C90.7866 9.36191 90.5785 12.7437 90.42 15.7189H90.4398ZM54.5671 13.4181C50.9312 13.2495 46.8793 17.4742 44.9574 23.8312C43.0751 29.9799 45.1654 32.5287 47.4638 32.5287C49.1381 32.5287 51.9318 30.3568 53.4773 27.8477C54.0222 26.9651 53.6061 26.0428 52.7739 26.9651C51.7238 28.0956 50.3071 29.3056 48.8112 29.018C47.8205 28.8494 46.8892 27.1337 48.3554 22.8692C51.8625 22.7006 55.9936 20.6974 57.0438 17.385C57.9552 14.5288 56.0729 13.4577 54.5671 13.4181V13.4181ZM54.9435 16.5123C54.0618 19.1007 50.9808 21.2726 48.7616 21.818C50.8916 16.1751 52.9324 14.6677 54.2302 14.7073C54.9435 14.7073 55.2804 15.5205 54.9435 16.5123V16.5123ZM108.381 15.5205H111.769C112.522 15.5205 112.899 15.3123 113.057 14.7668C113.354 14.0528 113.186 13.7156 112.433 13.7156H109.045L110.68 9.37183C110.888 8.78671 110.68 8.48919 110.343 8.48919H108.589C108.134 8.48919 107.965 8.61811 107.757 9.20323L106.004 13.7453H103.329C102.952 13.7453 102.655 13.666 102.407 14.7966C102.318 15.342 102.407 15.5503 102.952 15.5503H105.33L101.278 26.132C100.636 27.6475 100.077 29.1969 99.6037 30.7733C99.356 32.2411 100.238 32.8262 101.318 32.6179C103.448 32.2411 106.499 30.0196 109.243 26.5485C109.996 25.5568 109.372 24.9221 108.619 25.7155C107.482 26.8443 106.267 27.8915 104.983 28.8494C103.893 29.5634 103.358 29.0576 103.735 28.0163L108.381 15.5205ZM146.067 14.5288C146.315 13.9437 145.482 13.7751 143.561 13.4082C142.976 13.2792 142.639 13.904 141.639 15.9966C141.222 15.4923 140.688 15.0989 140.083 14.8515C139.478 14.6041 138.821 14.5102 138.171 14.5784C135.12 14.6577 131.355 17.4147 128.264 21.6395C125.797 25.0312 125.045 27.3717 125.51 29.8808C125.647 30.5887 126.027 31.2263 126.584 31.6828C127.142 32.1394 127.841 32.386 128.561 32.3799C130.86 32.4592 133.158 30.2874 135.496 27.8973L136.963 26.4295C137.379 26.013 137.755 26.2609 137.497 26.7667C136.742 28.0817 136.115 29.4666 135.625 30.9022C135.328 32.37 136.12 32.7468 137.25 32.5783C139.419 32.2907 142.808 30.2774 145.403 26.6874C146.146 25.6362 145.403 25.051 144.73 25.8444C143.596 27.046 142.352 28.1384 141.014 29.1072C139.885 29.8609 139.38 29.6527 139.717 28.77C139.885 28.2246 140.509 26.7171 146.067 14.5288V14.5288ZM136.418 25.4378C133.782 27.8675 131.652 29.6229 130.186 29.6229C129.196 29.6229 128.73 29.1965 128.641 28.4923C128.393 26.6477 130.067 23.8511 131.444 21.9668C133.822 18.8329 136.754 16.2346 138.627 16.2346C139.925 16.2346 140.608 16.78 140.717 17.5734C140.965 19.0213 138.548 23.4544 136.418 25.3783V25.4378ZM194.452 12.833C192.401 12.833 189.647 14.2908 187.052 17.1767C186.219 18.1685 186.844 18.8131 187.636 18.099C188.518 17.2919 189.469 16.5651 190.479 15.9271C191.361 15.3817 191.946 15.7982 191.688 16.5916C191.48 17.2263 190.856 18.7734 190.4 19.8147L187.557 26.3403C186.764 28.1849 186.011 30.0196 185.843 30.5254C185.467 31.8245 186.13 32.5088 187.18 32.5088C189.162 32.5088 191.906 30.8725 194.531 27.9469C195.364 26.9552 194.739 26.3205 193.947 27.0246C192.974 27.8896 191.941 28.6849 190.856 29.4047C189.984 29.9403 189.35 29.5237 189.647 28.7304C189.855 28.1452 190.479 26.8064 190.896 25.8444L193.778 19.3189C194.621 17.3949 195.581 15.3519 195.76 14.8065C196.077 13.5371 195.453 12.833 194.452 12.833V12.833ZM196.959 2.70742C196.346 2.66846 195.743 2.86898 195.275 3.26673C194.808 3.66447 194.512 4.22839 194.452 4.83963C194.401 5.12107 194.41 5.40995 194.476 5.6881C194.542 5.96625 194.665 6.22765 194.838 6.45586C195.01 6.68407 195.227 6.87415 195.476 7.01416C195.725 7.15416 196.001 7.24105 196.285 7.26936C196.882 7.2893 197.466 7.08613 197.921 6.69937C198.377 6.3126 198.673 5.7699 198.752 5.17682C198.81 4.89537 198.809 4.60482 198.748 4.32382C198.688 4.04281 198.57 3.77755 198.401 3.54505C198.232 3.31254 198.016 3.11793 197.768 2.97368C197.52 2.82943 197.244 2.73874 196.959 2.70742V2.70742ZM208.53 13.4577C204.854 13.2892 200.921 17.5536 198.999 23.8312C197.077 30.1089 199.168 32.5287 201.595 32.5287C203.269 32.5287 206.063 30.5452 207.737 27.8477C208.282 26.9651 207.866 26.0428 207.024 26.9651C205.984 28.0956 204.646 29.137 203.269 29.0576C201.892 28.9783 200.921 27.0742 202.516 22.4924C204.854 15.8875 206.479 15.1338 207.192 15.0842C207.906 15.0346 209.362 16.9288 210.244 17.1371C210.554 17.2359 210.889 17.2191 211.188 17.0896C211.486 16.9602 211.728 16.7269 211.868 16.4329C212.245 15.7189 212.007 13.6263 208.53 13.4577V13.4577ZM184.803 13.7453H181.415L183.039 9.40158C183.257 8.81646 183.039 8.51894 182.712 8.51894H180.949C180.493 8.51894 180.325 8.64786 180.117 9.23298L178.403 13.7453H175.688C175.312 13.7453 175.025 13.666 174.767 14.7966C174.688 15.342 174.817 15.5503 175.312 15.5503H177.7L173.648 26.132C173.001 27.6457 172.442 29.1954 171.973 30.7733C171.716 32.2411 172.598 32.8262 173.687 32.6179C175.817 32.2411 178.869 30.0196 181.613 26.5485C182.366 25.5568 181.742 24.9221 180.979 25.7155C179.839 26.8449 178.621 27.8921 177.333 28.8494C176.243 29.5634 175.698 29.0576 176.075 28.0163L180.741 15.5205H184.129C184.882 15.5205 185.259 15.3123 185.427 14.7668C185.714 14.0825 185.546 13.7453 184.803 13.7453V13.7453ZM121.795 25.5469C120.611 26.7256 119.353 27.8286 118.03 28.8494C116.941 29.5634 116.406 29.0576 116.782 28.0163L126.976 0.991728C127.145 0.575202 127.056 0 126.471 0C124.48 0.122382 122.496 0.347472 120.527 0.674375C120.19 0.753713 120.022 1.25949 120.398 1.3785L122.657 2.22147C123.113 2.39006 123.162 2.59833 122.865 3.35204L114.107 26.132C113.461 27.6457 112.902 29.1954 112.433 30.7733C112.185 32.2411 113.057 32.8262 114.147 32.6179C116.406 32.2411 119.616 30.0196 122.419 26.38C123.172 25.3783 122.548 24.7535 121.795 25.5469V25.5469ZM164.781 25.6262L167.248 20.6676C168.585 17.9503 168.843 16.7007 168.843 15.7784C168.843 13.9834 167.922 13.0611 166.039 13.0611C163.404 13.0611 161.314 15.1536 158.114 19.666C157.232 20.8759 156.647 21.7982 155.478 23.3056C155.102 23.7717 154.815 23.7221 155.023 23.1767L156.647 19.1205C157.295 17.7115 157.745 16.2197 157.985 14.6875C157.985 13.6065 157.529 13.1007 156.36 13.1007C154.934 13.1007 153.14 13.8544 150.01 17.8313C148.88 19.2891 150.01 19.4577 150.386 19.0015C151.01 18.3668 152.368 16.9486 153.269 16.1552C154.171 15.3619 154.973 15.6098 154.646 16.5718C154.43 17.3286 154.166 18.0707 153.854 18.7932L148.9 30.9617C148.227 32.6378 151.407 33.0146 151.952 31.7551C153.666 27.7882 157.42 22.8296 158.966 20.6279C161.224 17.4048 163.186 15.1933 164.603 15.1933C165.356 15.1933 165.692 15.6098 165.692 16.4032C165.618 17.0941 165.42 17.766 165.108 18.3866L161.601 25.8742C160.61 27.8576 159.679 29.97 159.511 30.5155C159.094 31.8146 159.808 32.4989 160.927 32.4989C162.909 32.4989 165.653 30.8626 168.288 27.937C169.12 26.9452 168.496 26.3105 167.704 27.0147C166.729 27.8806 165.696 28.6791 164.613 29.4047C163.701 29.9898 163.067 29.5237 163.364 28.6907C163.572 28.0956 164.325 26.5485 164.781 25.6262V25.6262Z" fill="white"/>
</svg>
