<svg width="140" height="46" viewBox="0 0 140 46" fill="none" xmlns="http://www.w3.org/2000/svg">
<g clip-path="url(#clip0_1503_17)">
<path d="M0.5 0.5H46.275V45.5H0.5V0.5Z" stroke="white"/>
<path d="M94.2787 0.5H139.5V45.5H94.2787V0.5Z" stroke="white"/>
<path d="M28.2909 35.467V21.5256C28.2909 19.4692 27.897 17.9675 27.1091 17.0205C26.3213 16.0736 25.0358 15.6001 23.2525 15.6001C22.3285 15.6249 21.4225 15.8636 20.6053 16.2978C19.7468 16.6972 18.9924 17.2915 18.4015 18.034V35.4781H12.7957V11.2612H16.8423L17.8753 13.5206C19.4033 11.7448 21.6603 10.856 24.6464 10.8542C27.5058 10.8542 29.7647 11.7153 31.423 13.4376C33.0814 15.1598 33.9078 17.5595 33.9023 20.6367V35.467H28.2826H28.2909Z" fill="white"/>
<path d="M69.832 35.9461C73.5049 35.9461 76.4029 34.8763 78.5258 32.7369C80.6488 30.5974 81.7103 27.5516 81.7103 23.5995C81.7103 15.1081 77.8711 10.8625 70.1928 10.8625C69.2384 10.8373 68.2885 11.0022 67.3978 11.3477C66.5071 11.6932 65.6932 12.2124 65.003 12.8755V11.2612H59.3778V41.8965H65.003V34.88C66.5141 35.6021 68.17 35.9659 69.843 35.9433L69.832 35.9461ZM68.5841 15.6721C71.1717 15.6721 73.0265 16.2545 74.1486 17.4192C75.2707 18.584 75.8281 20.5924 75.8207 23.4444C75.8207 26.121 75.256 28.0787 74.1266 29.3173C72.9971 30.5559 71.1405 31.1752 68.5565 31.1752C67.2646 31.1952 66.0068 30.758 65.003 29.9403V17.2476C65.4616 16.7534 66.0157 16.3584 66.6315 16.0871C67.2473 15.8157 67.9117 15.6735 68.5841 15.6693V15.6721Z" fill="white"/>
<path d="M123.497 16.5554C122.516 15.9262 121.376 15.5954 120.213 15.6028C118.913 15.6028 117.76 16.1963 116.756 17.3833C115.737 18.5958 115.198 20.1437 115.243 21.7305V35.4698H109.629V11.2612H115.249V13.576C116.814 11.7633 118.894 10.856 121.491 10.8542C123.399 10.8542 124.86 11.1477 125.874 11.7347L123.499 16.5692L123.497 16.5554Z" fill="white"/>
</g>
<rect x="0.5" y="0.5" width="139" height="45" stroke="white"/>
<defs>
<clipPath id="clip0_1503_17">
<rect width="140" height="46" fill="white"/>
</clipPath>
</defs>
</svg>
